<svg width="407" height="496" viewBox="0 0 407 496" fill="none" xmlns="http://www.w3.org/2000/svg">
<g clip-path="url(#clip0)" filter="url(#filter0_d)">
<path opacity="0.1" d="M203.021 487.362C293.035 487.362 365.973 471.255 365.973 451.32C365.973 431.386 293.035 415.278 203.021 415.278C113.007 415.278 40.0693 431.386 40.0693 451.32C40.0693 471.255 113.007 487.362 203.021 487.362Z" fill="black"/>
<path d="M399.169 168.886C399.169 168.089 399.169 167.451 399.169 166.813C399.169 166.175 399.169 165.537 399.01 164.899C399.01 164.421 399.01 163.942 398.85 163.464C398.85 163.145 398.85 162.666 398.85 162.347C398.85 161.71 398.691 160.912 398.691 160.274C398.691 159.636 398.531 158.839 398.531 158.201C398.531 157.563 398.371 156.925 398.371 156.287C398.371 155.649 398.212 155.012 398.212 154.533C398.212 153.895 398.052 153.257 397.893 152.619C397.733 151.981 397.733 151.503 397.733 151.025L397.573 150.387C397.414 149.749 397.414 149.27 397.254 148.632C397.095 147.994 397.095 147.516 396.935 147.038C396.775 146.559 396.775 145.921 396.616 145.283C396.616 144.805 396.456 144.486 396.297 144.008L396.137 142.891L395.977 142.253C395.818 141.775 395.818 141.137 395.658 140.659V140.499C395.499 140.021 395.499 139.542 395.339 139.223C395.179 138.585 395.02 138.107 394.86 137.469C394.701 136.831 394.701 136.512 394.541 136.034C394.381 135.555 394.381 135.077 394.222 134.758C394.222 134.758 394.222 134.758 394.222 134.598C394.062 133.961 393.903 133.323 393.743 132.685C393.583 132.047 393.424 131.409 393.264 130.93C392.945 130.133 392.785 129.176 392.466 128.379L391.987 126.944C391.509 125.668 391.189 124.232 390.711 122.957C390.072 121.043 389.434 119.289 388.636 117.375C388.157 116.099 387.519 114.664 387.04 113.388C386.561 112.112 385.923 110.836 385.444 109.72C384.965 108.444 384.327 107.328 383.688 106.052C383.05 104.776 382.571 103.66 381.933 102.384C381.613 101.746 381.294 101.108 380.975 100.63C380.656 99.9919 380.337 99.354 380.017 98.8755C379.698 98.2376 379.379 97.7592 379.06 97.1213C378.741 96.4834 378.421 96.005 378.102 95.3671C377.783 94.7291 377.464 94.2507 377.145 93.6128C376.825 92.9749 376.506 92.4965 376.027 91.8586C375.708 91.2206 375.389 90.7422 375.07 90.2638L374.91 89.9448C374.591 89.4664 374.272 88.988 373.953 88.3501L373.793 88.1906C373.474 87.7122 373.155 87.0742 372.676 86.5958C372.357 86.1174 371.878 85.4795 371.559 84.8416C371.239 84.2037 370.761 83.7252 370.441 83.0873L369.324 81.3331C369.005 80.8546 368.526 80.2167 368.207 79.7383V79.5788L367.09 77.9841C366.292 76.8677 365.494 75.7514 364.536 74.7945C364.057 74.3161 363.738 73.6782 363.259 73.1997C362.461 72.0834 361.504 71.1265 360.706 70.0102C359.429 68.4154 358.152 66.8206 356.716 65.3854C354.96 63.3122 353.045 61.3984 351.13 59.3252C349.693 57.8899 348.097 56.4546 346.661 55.0193L345.225 53.584C343.309 51.6703 341.235 49.9161 339.16 48.1618L338.681 47.6834C337.723 46.886 336.925 46.0886 335.968 45.4507L334.531 44.1749L334.372 44.0154L332.935 42.8991L332.776 42.7396L331.18 41.4638L329.584 40.188L327.828 38.9122C327.19 38.4337 326.711 38.1148 326.073 37.6363C325.434 37.1579 324.955 36.839 324.317 36.52C323.838 36.0416 323.2 35.7226 322.561 35.4037L320.806 34.2873L319.05 33.171L317.454 32.0546L315.379 30.7788L313.783 29.822L311.868 28.7056L310.113 27.7488C309.474 27.4298 308.836 27.1109 308.357 26.7919C307.719 26.4729 307.08 26.154 306.442 25.835L304.527 24.8782C302.611 23.9213 300.696 22.9644 298.941 22.0076C297.664 21.3697 296.387 20.7318 295.11 20.2533C291.28 18.4991 287.29 16.7448 283.14 15.3095L281.225 14.3527L279.629 13.7148C278.512 13.2363 277.235 12.9174 276.118 12.439L274.522 11.9605C274.043 11.801 273.564 11.6416 272.926 11.4821C272.287 11.3226 271.649 11.1631 271.011 10.8442C270.372 10.6847 269.734 10.3658 268.936 10.2063L267.021 9.56837L265.425 9.08994L264.307 8.77098C263.829 8.61151 263.35 8.45203 262.871 8.45203L260.956 7.9736C260.158 7.81412 259.36 7.65464 258.562 7.33569C257.923 7.17621 257.285 7.01674 256.647 6.85726C256.008 6.69778 255.37 6.5383 254.731 6.37883C252.018 5.74092 249.145 5.26249 246.273 4.78406L244.996 4.62458C244.517 4.62458 244.198 4.4651 243.719 4.4651C243.081 4.30562 242.442 4.30562 241.804 4.14615L240.846 3.98667C239.729 3.82719 238.612 3.66772 237.495 3.50824C236.537 3.34876 235.739 3.34876 234.781 3.18928L233.026 3.02981C232.387 3.02981 231.589 2.87033 230.951 2.87033L228.717 2.71085L226.801 2.55138H226.642C223.45 2.3919 220.417 2.23242 217.225 2.23242C108.697 2.23242 -15.3118 89.4664 10.0646 228.849C26.9822 321.665 123.859 390.559 202.542 451.32L205.734 448.928L207.49 447.652L210.841 445.26L214.991 442.23C216.427 441.273 217.704 440.157 219.141 439.2C223.45 436.01 227.599 432.821 231.749 429.631C232.866 428.834 233.983 427.877 235.101 427.079C236.856 425.804 238.452 424.528 240.208 423.093L243.24 420.7L246.113 418.468C247.23 417.511 248.347 416.713 249.465 415.757C250.263 415.119 251.061 414.481 251.859 413.843L254.731 411.451L255.21 411.132L258.402 408.421L259.519 407.464L262.552 404.912L262.871 404.593C264.148 403.636 265.265 402.52 266.542 401.563C267.819 400.447 269.095 399.49 270.213 398.374L270.372 398.214L273.564 395.344L274.522 394.387C275.479 393.589 276.437 392.632 277.395 391.835L277.873 391.357C278.831 390.559 279.789 389.602 280.746 388.645C281.065 388.327 281.544 388.008 281.863 387.689C282.661 387.051 283.3 386.413 283.938 385.775C284.577 385.137 285.215 384.659 285.853 384.021C286.492 383.383 286.971 382.904 287.609 382.426L289.205 380.991C290.003 380.193 290.801 379.555 291.599 378.758L292.557 377.961L295.429 375.249L296.068 374.611L298.302 372.538C298.941 371.9 299.739 371.103 300.377 370.465C300.856 369.987 301.175 369.668 301.654 369.189C302.292 368.551 302.771 367.913 303.409 367.435C304.048 366.797 304.846 366 305.484 365.362C305.803 365.043 306.282 364.564 306.601 364.245C307.399 363.448 308.038 362.651 308.836 362.013C309.315 361.534 309.634 361.056 310.113 360.737C310.751 360.099 311.389 359.302 312.028 358.664C312.507 358.185 312.985 357.707 313.464 357.228C314.103 356.431 314.901 355.634 315.539 354.836C315.858 354.517 316.177 354.039 316.497 353.72C317.135 353.082 317.773 352.285 318.412 351.647C319.05 351.009 319.529 350.371 320.167 349.733C320.487 349.255 320.965 348.936 321.285 348.457C322.083 347.5 323.04 346.544 323.838 345.587C324.955 344.311 325.913 343.194 326.871 341.919L328.467 340.005L329.265 339.048C329.743 338.57 330.063 338.091 330.382 337.613C331.499 336.177 332.616 334.742 333.733 333.307C334.053 332.828 334.531 332.35 334.851 331.872C336.606 329.479 338.521 327.247 340.277 324.855C340.756 324.217 341.235 323.579 341.713 322.941L343.15 321.027C343.629 320.389 344.107 319.751 344.586 319.113C345.065 318.476 345.544 317.838 346.023 317.2C346.501 316.562 346.98 315.924 347.459 315.286C348.417 313.851 349.374 312.415 350.332 310.98C350.651 310.342 351.13 309.864 351.449 309.226C351.768 308.588 352.247 307.95 352.726 307.312C353.205 306.674 353.524 306.036 354.003 305.398C354.481 304.761 354.801 303.963 355.279 303.325C355.758 302.687 356.077 301.89 356.556 301.252C357.035 300.614 357.354 299.817 357.833 299.179L359.11 297.106C360.387 295.032 361.504 292.959 362.781 290.886C363.259 290.248 363.579 289.451 363.898 288.813C365.973 285.145 367.888 281.317 369.963 277.649C370.282 277.012 370.601 276.533 370.761 275.895C371.399 274.619 372.037 273.503 372.516 272.227C372.835 271.749 372.995 271.111 373.314 270.632C373.633 270.154 373.793 269.676 373.953 269.197C375.07 266.964 376.027 264.732 376.985 262.499C377.304 261.702 377.623 260.904 377.943 260.266C378.262 259.469 378.581 258.831 378.9 258.034C380.017 255.482 380.975 253.09 381.933 250.538C382.252 249.9 382.411 249.262 382.731 248.625C383.05 247.827 383.369 247.03 383.688 246.232C386.561 238.418 389.274 230.285 391.668 221.992C391.987 221.195 392.147 220.238 392.466 219.44C393.583 215.134 394.701 210.828 395.818 206.523C398.531 193.445 399.648 181.166 399.169 168.886ZM302.771 217.208C300.696 229.647 296.227 241.608 289.524 252.293C282.821 262.978 273.883 272.227 263.509 279.404C246.113 294.076 224.727 303.006 202.063 304.92C151.789 309.066 109.974 256.439 103.111 211.307C93.8546 150.227 142.852 88.988 207.011 93.4533C218.343 94.2507 229.515 96.8023 239.889 101.268C283.619 120.086 310.911 168.408 302.771 217.208Z" fill="#F4F4FF"/>
<path d="M395.818 205.566C394.86 210.031 393.743 214.337 392.466 218.483C392.307 219.281 391.988 220.238 391.668 221.035C389.274 229.328 386.721 237.461 383.688 245.276C383.369 246.073 383.05 246.87 382.731 247.668C382.412 248.306 382.252 248.944 381.933 249.581C380.975 252.133 379.858 254.525 378.9 257.077C378.581 257.874 378.262 258.512 377.943 259.31C377.624 260.107 377.304 260.904 376.985 261.542C376.028 263.775 374.91 266.008 373.953 268.24C373.793 268.719 373.474 269.197 373.314 269.676C373.155 270.154 372.836 270.792 372.516 271.27C371.878 272.546 371.24 273.822 370.761 274.938C370.442 275.576 370.122 276.055 369.963 276.693C368.048 280.52 365.973 284.188 363.898 287.856C363.579 288.494 363.1 289.291 362.781 289.929C361.504 292.002 360.387 294.076 359.11 296.149L357.833 298.222C357.354 298.86 357.035 299.657 356.556 300.295C356.078 300.933 355.758 301.73 355.28 302.368C354.801 303.006 354.482 303.804 354.003 304.442C353.524 305.079 353.205 305.717 352.726 306.355C352.247 306.993 351.928 307.631 351.449 308.269C350.97 308.907 350.651 309.385 350.332 310.023C349.374 311.459 348.417 312.894 347.459 314.329C346.98 314.967 346.502 315.605 346.023 316.243C345.544 316.881 345.065 317.519 344.586 318.157C344.108 318.794 343.629 319.432 343.15 320.07L341.714 321.984C341.235 322.622 340.756 323.26 340.277 323.898C338.522 326.29 336.766 328.682 334.851 330.915C334.532 331.393 334.053 331.872 333.734 332.35C332.616 333.785 331.499 335.221 330.382 336.656C330.063 337.134 329.584 337.613 329.265 338.091L328.467 339.048L326.871 340.962C325.913 342.238 324.796 343.354 323.838 344.63C323.04 345.587 322.083 346.544 321.285 347.5C320.966 347.979 320.646 348.298 320.168 348.776C319.529 349.414 319.05 350.052 318.412 350.69C317.774 351.328 317.135 352.125 316.497 352.763C316.178 353.082 315.858 353.561 315.539 353.879C314.901 354.677 314.103 355.474 313.464 356.272C312.986 356.75 312.507 357.228 312.028 357.707C311.39 358.345 310.751 359.142 310.113 359.78C309.634 360.259 309.315 360.737 308.836 361.056C308.038 361.853 307.4 362.651 306.602 363.289C306.282 363.608 305.804 364.086 305.484 364.405C304.846 365.043 304.048 365.84 303.41 366.478C302.771 367.116 302.292 367.754 301.654 368.232C301.175 368.711 300.856 369.03 300.377 369.508C299.739 370.146 298.941 370.944 298.302 371.581L296.068 373.655L295.43 374.293L292.557 377.004L291.759 377.961C290.961 378.758 290.163 379.396 289.365 380.193L287.769 381.628C287.13 382.107 286.652 382.745 286.013 383.223C285.375 383.702 284.736 384.34 284.098 384.978C283.46 385.615 282.662 386.253 282.023 386.891C281.704 387.21 281.225 387.529 280.906 387.848C279.948 388.805 278.991 389.602 278.033 390.559L277.554 391.038C276.597 391.835 275.639 392.792 274.682 393.589L273.724 394.546L270.532 397.417L270.372 397.576C269.096 398.693 267.819 399.649 266.702 400.766C265.584 401.882 264.308 402.839 263.031 403.796L262.712 404.115L259.679 406.666L258.562 407.623L255.37 410.175L254.891 410.494L252.018 412.886C251.22 413.524 250.422 414.162 249.624 414.8C248.507 415.757 247.39 416.554 246.273 417.511L243.4 419.744L240.368 422.136C238.612 423.411 237.016 424.847 235.26 426.123C234.143 426.92 233.026 427.877 231.909 428.674C227.759 431.864 223.45 435.053 219.3 438.243C217.864 439.2 216.587 440.316 215.151 441.273L211.001 444.303L207.65 446.695L205.894 447.971C210.842 421.817 217.385 395.822 222.971 369.668C228.078 345.268 232.228 320.549 235.42 295.83C245.634 291.524 255.051 285.783 263.51 278.606C273.884 271.43 282.821 262.18 289.524 251.495C296.228 240.81 300.856 228.849 302.771 216.41C310.911 167.61 283.779 119.289 239.729 100.63C237.016 67.618 232.707 34.7658 226.642 2.23242H226.802L228.717 2.3919L230.951 2.55138C231.59 2.55138 232.388 2.71085 233.026 2.71085L234.782 2.87033C235.739 3.02981 236.697 3.02981 237.495 3.18928C238.612 3.34876 239.729 3.50824 240.846 3.66772L241.804 3.82719C242.442 3.98667 243.081 3.98667 243.719 4.14615C244.198 4.14615 244.517 4.30562 244.996 4.30562L246.273 4.4651C249.146 4.94353 251.859 5.42196 254.732 6.05987C255.37 6.21935 256.008 6.37883 256.647 6.5383C257.285 6.69778 257.924 6.85726 258.562 7.01674C259.36 7.17621 260.158 7.33569 260.956 7.65464L262.871 8.13307C263.35 8.29255 263.829 8.29255 264.308 8.45203L265.425 8.77098L267.021 9.24941L269.096 9.88732C269.734 10.0468 270.532 10.3658 271.17 10.5252C271.809 10.6847 272.447 10.8442 273.086 11.1631C273.564 11.3226 274.043 11.4821 274.682 11.6416L276.278 12.12C277.395 12.439 278.672 12.9174 279.789 13.3958L281.385 14.0337L283.14 14.6716C287.13 16.2664 291.12 17.8612 295.11 19.6154C296.387 20.2533 297.664 20.7318 298.941 21.3697C300.856 22.3265 302.771 23.2834 304.527 24.2403L306.442 25.1971C307.08 25.5161 307.719 25.835 308.357 26.154C308.996 26.4729 309.634 26.7919 310.113 27.1109L311.709 28.0677L313.624 29.1841L315.22 30.1409L317.295 31.4167L318.891 32.5331L320.646 33.6494L322.402 34.7658C323.04 35.0847 323.519 35.5631 324.158 35.8821C324.796 36.201 325.275 36.6795 325.913 37.1579C326.552 37.6363 327.03 37.9553 327.669 38.4337L329.424 39.7095L331.02 40.9854L332.616 42.2612L332.776 42.4207L334.212 43.537L334.372 43.6965L335.808 44.9723C336.766 45.7697 337.724 46.5671 338.522 47.205L339 47.6834C341.075 49.4376 343.15 51.1919 345.065 53.1056L346.502 54.5409C347.938 55.9762 349.374 57.4115 350.97 58.8468C352.886 60.7605 354.801 62.8337 356.556 64.9069C357.993 66.5017 359.27 67.937 360.546 69.5318C361.504 70.6481 362.302 71.605 363.1 72.7213C363.579 73.1997 363.898 73.8376 364.377 74.3161C365.175 75.4324 366.132 76.5488 366.93 77.5056L368.048 79.1004V79.2599C368.367 79.7383 368.846 80.3762 369.165 80.8546L370.282 82.6089C370.601 83.2468 371.08 83.7252 371.399 84.3631C371.718 85.001 372.197 85.4795 372.516 86.1174C372.836 86.7553 373.155 87.2337 373.634 87.7122L373.793 87.8716C374.112 88.3501 374.432 88.8285 374.751 89.3069L374.91 89.6259C375.23 90.1043 375.549 90.7422 375.868 91.2206C376.187 91.6991 376.506 92.337 376.985 92.9749C377.304 93.6128 377.624 94.0912 377.943 94.7291C378.262 95.3671 378.581 95.8455 378.9 96.4834C379.22 97.1213 379.539 97.5997 379.858 98.2376C380.177 98.8755 380.496 99.354 380.816 99.9919C381.135 100.63 381.454 101.268 381.773 101.746C382.412 103.022 383.05 104.138 383.529 105.414C384.167 106.69 384.646 107.806 385.284 109.082C385.763 110.358 386.402 111.634 386.88 112.75C387.359 114.026 387.998 115.302 388.476 116.737C389.115 118.491 389.913 120.405 390.551 122.319C391.03 123.594 391.509 125.03 391.828 126.306L392.307 127.741C392.626 128.538 392.786 129.495 393.105 130.293C393.264 130.93 393.424 131.568 393.584 132.047C393.743 132.685 393.903 133.323 394.062 133.961C394.062 133.961 394.062 133.961 394.062 134.12C394.222 134.598 394.222 135.077 394.382 135.396C394.541 135.874 394.701 136.353 394.701 136.831C394.86 137.31 395.02 137.947 395.18 138.585C395.339 139.064 395.339 139.542 395.499 139.861V140.021C395.658 140.499 395.818 141.137 395.818 141.615L395.978 142.253L396.137 143.37C396.297 143.848 396.297 144.167 396.456 144.645C396.616 145.283 396.616 145.762 396.776 146.4C396.935 147.038 396.935 147.516 397.095 147.995C397.254 148.473 397.254 149.111 397.414 149.749L397.574 150.387C397.733 150.865 397.733 151.503 397.733 151.981C397.733 152.46 397.893 153.257 398.052 153.895C398.052 154.533 398.212 155.171 398.212 155.649C398.212 156.287 398.372 156.925 398.372 157.563C398.372 158.201 398.531 158.998 398.531 159.636C398.531 160.274 398.691 161.072 398.691 161.71C398.691 162.028 398.691 162.347 398.691 162.826C398.691 163.304 398.691 163.783 398.85 164.261C398.85 164.899 398.85 165.537 399.01 166.175C399.01 166.813 399.01 167.61 399.01 168.248C399.489 181.166 398.372 193.445 395.818 205.566Z" fill="#DDDDFF"/>
<path d="M196.478 307.95C174.453 307.95 152.588 297.744 134.234 278.607C116.518 260.267 103.91 235.229 100.239 211.786C95.4509 180.209 105.825 147.038 128.009 123.116C137.745 112.431 149.715 103.979 163.121 98.2379C177.006 92.3372 192.168 89.7856 207.171 90.9019C237.016 92.9752 263.988 107.169 282.981 131.25C302.452 155.809 310.592 187.386 305.644 217.686C303.569 230.444 298.941 242.724 291.918 253.728C285.056 264.732 275.958 274.141 265.265 281.637C247.55 296.627 225.525 305.718 202.383 307.791C200.308 307.95 198.393 307.95 196.478 307.95ZM200.468 96.0052C188.338 96.0052 176.368 98.3974 165.196 103.182C152.588 108.604 141.256 116.578 131.999 126.784C110.932 149.749 101.196 181.166 105.665 210.988C109.017 233.315 121.146 257.237 138.064 274.779C156.897 294.235 179.4 304.123 201.744 302.209C223.769 300.295 244.677 291.524 261.594 277.331L261.754 277.171C271.809 270.154 280.427 261.224 286.971 250.858C293.514 240.492 297.983 228.85 299.898 216.729C304.686 187.864 296.866 157.882 278.352 134.439C260.318 111.634 234.782 98.0784 206.532 96.1647C204.617 96.1647 202.542 96.0052 200.468 96.0052Z" fill="#8B254A"/>
<path d="M395.977 130.292C390.391 110.996 381.294 92.6559 369.165 76.5487C356.875 60.1225 342.033 45.7696 325.275 34.1278C308.038 22.3265 289.045 13.2363 269.095 7.33561C249.145 1.59444 228.238 -0.797719 207.49 0.159144C189.295 1.11601 171.261 4.14607 153.864 9.24934C135.989 14.5121 118.912 21.848 102.792 31.0977C86.6726 40.3474 71.8298 51.5108 58.583 64.5879C45.1766 77.665 34.0046 92.6559 25.067 109.082C15.6506 126.146 9.42621 144.645 6.39381 163.783C3.04221 184.834 3.36141 206.363 7.03221 227.414C10.703 248.465 18.3638 268.719 28.8974 287.377C39.7502 306.834 53.6354 324.536 68.6378 340.962C84.4382 358.185 101.675 374.133 119.55 389.283C137.585 404.593 156.099 419.106 174.931 433.458C183.55 440.156 192.328 446.695 200.946 453.393C201.265 453.872 201.904 454.031 202.383 454.19C203.021 454.19 203.5 454.031 203.979 453.712C222.492 440.316 240.846 426.441 258.562 411.929C275.958 397.895 292.397 382.745 308.038 366.797C323.359 351.009 337.404 334.104 350.013 315.924C362.781 297.584 373.474 277.968 382.092 257.396C390.87 236.504 398.371 214.018 401.085 191.372C403.319 170.8 401.723 150.068 395.977 130.292ZM395.339 192.967C393.743 204.13 390.87 215.294 387.519 226.138C374.591 268.24 352.566 306.993 324.157 340.643C295.908 374.292 262.392 402.998 227.44 429.472C219.3 435.691 211.001 441.911 202.542 447.971C166.632 420.222 129.924 393.111 96.887 362.013C65.4458 332.35 35.7602 298.062 20.4386 257.077C6.23421 219.121 5.43621 175.424 18.5234 137.15C30.4934 102.543 53.795 72.7212 83.0018 50.8729C112.368 28.865 146.203 14.5121 182.113 8.45195C200.627 5.26241 219.46 4.6245 238.293 6.69771C258.721 9.08986 278.512 14.9905 297.025 23.9212C332.935 41.3042 363.419 70.3291 380.975 106.211C389.593 123.754 394.86 142.891 396.297 162.507C396.935 172.713 396.616 182.92 395.339 192.967Z" fill="#8B254A"/>
<path fill-rule="evenodd" clip-rule="evenodd" d="M141.096 129.655C142.852 131.09 144.288 132.207 145.565 133.323C151.47 137.948 157.854 141.616 165.515 142.573C169.346 143.051 173.336 143.37 177.006 141.935C178.762 141.297 180.518 140.34 182.114 139.224C184.348 137.629 185.625 135.396 185.784 132.526C185.784 131.25 185.944 130.133 186.104 128.858C188.178 128.539 189.455 129.974 191.051 130.771C195.839 133.164 200.787 134.918 206.213 134.758C207.65 134.758 209.086 134.758 210.363 134.28C214.991 133.004 217.385 129.815 217.066 125.349C217.066 125.03 216.906 124.711 216.906 124.233C216.906 123.914 217.066 123.595 217.385 122.957C218.822 123.595 220.098 124.392 221.535 125.03C226.961 127.741 232.707 129.336 238.772 129.336C244.198 129.336 250.422 126.466 252.018 118.651C252.338 117.056 252.497 115.462 252.816 113.548C253.774 114.345 254.732 114.983 255.37 115.621C258.881 119.608 262.233 123.754 265.584 127.741C269.894 133.164 274.841 137.948 280.587 141.775C282.183 142.732 283.14 144.008 283.14 146.081C283.46 152.939 284.577 159.796 284.258 166.654C283.779 179.093 281.066 191.213 272.766 201.26C262.712 213.381 250.422 222.949 236.218 229.488C228.717 232.996 220.577 234.75 212.438 236.505C197.595 239.694 183.231 237.781 169.186 233.475C156.099 229.328 145.406 221.354 136.308 211.148C127.211 200.941 121.785 188.662 117.476 175.903C117.316 175.425 117.316 174.787 117.316 174.947C120.189 169.205 122.902 163.783 125.615 158.52C130.084 149.909 134.553 141.297 139.181 132.685C139.66 131.888 140.298 131.09 141.096 129.655ZM228.398 187.705C228.398 185.153 227.759 182.761 226.482 180.528C225.844 179.571 225.046 178.933 223.769 179.412C222.652 179.89 221.854 181.166 222.333 182.442C222.492 182.92 222.812 183.399 222.971 183.877C224.408 187.386 223.45 190.894 222.492 194.243C221.694 196.795 219.62 198.39 217.226 199.028C211.32 200.463 206.852 199.347 204.298 193.924C203.819 192.808 203.181 191.692 202.862 190.575C202.383 188.821 202.383 187.067 201.904 185.472C201.744 184.834 200.787 184.037 200.148 183.877C199.51 183.877 198.393 184.515 198.074 185.153C197.595 186.269 197.435 187.705 197.754 188.821C198.552 191.532 199.35 194.243 200.627 196.795C204.458 205.247 214.672 205.885 220.098 203.174C223.929 201.26 226.642 198.39 227.44 194.084C227.759 191.851 228.078 189.778 228.398 187.705ZM172.857 173.671C172.697 172.873 172.378 171.119 171.74 169.524C170.144 165.856 166.154 164.421 162.483 166.175C158.972 167.77 157.376 170.8 156.897 174.468C156.578 177.498 157.216 180.528 160.089 182.283C162.802 183.877 165.834 183.877 168.707 182.601C172.059 180.847 172.857 177.977 172.857 173.671ZM243.719 166.654C248.348 167.292 252.816 160.434 251.22 156.288C250.103 153.417 248.986 150.547 245.634 149.749C241.964 148.952 239.57 151.344 237.654 153.896C235.58 156.607 236.058 159.637 237.335 162.507C238.612 164.899 240.527 166.654 243.719 166.654Z" fill="#FFF6F9"/>
<path fill-rule="evenodd" clip-rule="evenodd" d="M282.183 136.353C281.385 136.194 280.906 136.194 280.427 135.875C277.235 132.845 273.724 130.133 270.851 126.784C267.18 122.798 263.829 118.332 260.318 114.186C257.285 110.677 254.093 107.488 251.061 103.979C249.944 102.703 248.667 102.544 247.23 103.182C245.475 103.82 244.996 104.777 246.113 106.371C248.826 110.518 248.348 114.824 247.23 119.13C246.273 122.479 243.56 124.233 240.048 124.552C237.814 124.711 235.42 124.392 233.186 124.073C227.6 123.116 222.492 120.405 217.864 117.216C216.428 116.259 214.991 115.143 213.395 114.505C212.597 114.186 211.161 114.186 210.363 114.664C209.086 115.302 209.086 116.737 209.405 118.013C209.884 119.448 210.682 120.884 211.32 122.319C211.799 123.435 212.278 124.552 212.438 125.828C212.757 127.103 212.119 128.379 210.842 128.858C209.405 129.496 207.809 129.974 206.373 129.974C203.021 130.133 199.67 129.336 196.637 127.901C190.892 125.349 185.625 122.319 181.156 117.854C180.518 117.216 179.879 116.737 179.081 116.418C178.602 116.259 177.645 116.418 177.166 116.897C176.687 117.375 176.368 118.173 176.528 118.811C176.847 119.767 177.485 120.724 177.964 121.522C179.081 123.595 180.358 125.509 180.996 127.582C182.592 132.526 180.837 135.875 175.889 137.31C171.42 138.586 166.792 138.267 162.323 136.832C154.982 134.439 148.598 130.293 143.65 124.392C143.49 124.073 143.331 123.754 143.012 123.595C141.894 122.479 140.458 122.479 139.341 123.754C138.543 124.711 137.904 125.668 137.266 126.784C130.084 139.383 123.062 152.141 117.476 165.537C116.997 166.813 116.199 168.089 115.401 169.843C114.762 168.727 114.124 168.089 113.805 167.451C111.411 160.913 109.815 154.215 108.698 147.357C108.378 145.284 108.219 143.211 108.219 140.978C107.58 127.263 110.453 114.345 115.56 101.747C116.678 99.1949 117.635 96.4838 118.752 93.9322C125.296 78.9413 136.787 68.5753 150.832 60.7609C161.206 54.8603 172.697 51.8302 184.348 49.757C190.094 48.8001 195.839 47.8433 201.744 47.8433C223.131 47.8433 241.804 55.0197 257.285 70.1701C266.382 79.2603 272.128 90.2642 275.32 102.544C277.235 109.72 278.991 116.897 280.746 124.073C281.704 128.22 282.502 132.207 282.183 136.353Z" fill="#DF6490"/>
<path fill-rule="evenodd" clip-rule="evenodd" d="M248.667 251.336C245.635 253.888 241.964 254.526 238.612 255.482C224.089 259.31 209.405 261.862 193.924 260.745C192.647 257.875 193.605 254.845 193.605 251.974C193.605 249.103 193.924 246.392 194.084 243.362C211.64 243.203 227.759 238.897 243.4 231.88C243.879 232.199 244.358 232.518 244.517 232.837C246.752 238.897 247.231 245.276 248.667 251.336Z" fill="#3CDC8C"/>
<path fill-rule="evenodd" clip-rule="evenodd" d="M192.168 283.072C192.008 277.969 192.168 273.184 192.487 268.4C192.487 267.603 192.966 266.805 193.445 265.689C199.829 265.529 206.213 265.37 212.437 265.051C218.662 264.732 224.726 263.616 230.632 262.021C236.696 260.426 242.921 258.991 249.464 257.396C249.624 257.715 250.262 258.512 250.422 259.15C251.22 262.818 251.858 266.327 252.497 270.314C248.666 273.025 244.836 275.576 240.367 276.533C229.993 278.766 219.779 280.999 209.405 283.072C204.936 283.869 200.308 284.667 195.839 284.029C194.722 283.71 193.604 283.391 192.168 283.072Z" fill="#FAC632"/>
<path fill-rule="evenodd" clip-rule="evenodd" d="M69.4361 257.556C68.7977 255.004 68.9573 252.931 70.2341 251.017C70.7129 250.22 71.3513 249.423 71.3513 248.625C71.3513 247.828 71.0321 246.871 70.3937 246.393C70.0745 246.074 68.9573 246.074 68.4785 246.233C67.6805 246.552 67.0421 247.19 66.4037 247.828C64.6481 249.263 62.8925 249.423 60.9773 248.466C60.0197 247.987 58.7429 247.668 59.0621 246.393C59.2217 245.436 60.1793 244.638 60.9773 244C62.0945 243.203 63.6905 243.044 64.8077 242.406C65.4461 242.087 65.9249 240.97 65.9249 240.173C65.7653 239.535 64.9673 238.738 64.3289 238.419C63.3713 237.94 62.2541 238.259 61.2965 237.781C59.7005 237.143 58.1045 236.345 56.5085 235.548C56.1893 235.389 55.8701 234.591 55.8701 234.272C55.8701 233.953 56.5085 233.315 56.8277 233.315C58.4237 233.156 60.0197 233.156 61.6157 233.156C62.7329 233.156 63.6905 233.156 64.8077 232.837C66.0845 232.518 66.7229 230.285 65.7653 229.328C64.8077 228.531 63.8501 227.893 62.8925 227.096C60.9773 225.66 59.3813 224.225 58.4237 221.993C57.6257 219.919 58.5833 218.325 60.6581 218.484C65.4461 218.803 70.0745 219.919 73.9049 223.109C75.3413 224.225 77.0969 225.182 78.8525 225.979C80.9273 226.777 82.2041 225.342 81.7253 223.109C81.5657 222.152 81.0869 221.036 81.0869 220.079C80.9273 217.527 81.8849 215.294 83.8001 213.381C85.2365 212.105 86.8325 212.105 87.7901 213.7C88.7477 215.135 89.5457 216.889 90.0245 218.484C91.3013 223.109 91.7801 227.893 91.3013 232.677C90.8225 236.664 90.1841 240.651 89.3861 244.638C89.2265 245.755 88.5881 247.19 87.7901 247.987C83.9597 251.655 80.2889 255.483 74.8625 257.077C73.2665 257.556 71.6705 258.034 69.4361 257.556Z" fill="#FFF6F9"/>
<path fill-rule="evenodd" clip-rule="evenodd" d="M317.774 160.274C320.168 160.115 320.806 161.391 321.445 162.507C322.243 163.942 322.721 165.378 323.679 166.654C324.158 167.132 325.275 167.61 325.913 167.451C326.552 167.291 327.509 166.494 327.669 165.697C327.988 163.783 327.988 161.869 327.988 159.956C327.988 156.766 328.786 153.576 330.542 150.865C331.34 149.749 332.138 148.473 334.053 148.473C334.372 149.271 335.17 150.227 335.17 151.025C335.17 154.214 335.011 157.404 334.851 160.434C334.691 162.029 334.372 163.623 334.532 165.059C334.532 165.537 335.33 166.335 335.809 166.494C336.607 166.654 337.883 166.335 338.203 165.856C338.841 164.74 339.16 163.305 339.639 161.869C340.916 158.201 342.831 155.171 346.502 153.576C348.577 155.331 348.257 157.404 347.459 159.477C346.661 161.55 345.225 162.986 343.629 164.421C342.512 165.537 341.235 166.494 340.277 167.77C339.958 168.248 339.799 169.205 340.118 169.684C340.597 170.322 341.395 170.959 342.193 170.959C343.15 170.959 344.108 170.322 345.225 170.003C347.14 169.524 348.896 168.886 350.811 168.567C352.247 168.248 353.524 169.205 354.163 170.64C354.801 172.076 354.641 173.671 353.365 174.468C352.247 175.265 350.971 175.903 349.694 176.382C348.736 176.701 347.619 176.701 346.502 176.86C345.385 177.02 344.427 177.498 344.108 178.614C343.789 180.05 344.587 180.847 345.863 181.485C346.981 182.123 348.098 182.761 348.896 183.558C349.534 184.037 350.013 185.153 349.853 185.791C349.694 187.067 348.577 187.386 347.459 187.545C346.661 187.705 345.704 187.864 344.906 187.705C339.639 186.907 334.532 186.11 329.265 184.993C327.031 184.515 324.956 183.399 323.998 181.006C323.519 179.731 322.562 179.093 321.604 178.455C319.689 177.179 318.572 175.425 318.093 173.352C316.976 169.205 316.337 164.899 317.774 160.274Z" fill="#FFF6F9"/>
<path fill-rule="evenodd" clip-rule="evenodd" d="M111.411 175.584C115.72 186.429 120.827 196.954 126.732 207.48C125.934 207.799 125.455 208.118 125.136 208.118C115.56 207.001 107.101 203.493 100.079 196.795C99.4406 196.157 98.8022 195.519 98.1638 194.881C93.5354 190.097 94.0142 184.355 96.7274 179.252C98.483 175.584 101.675 173.83 105.825 174.149C107.74 173.989 109.655 174.149 111.411 175.584Z" fill="#FFF6F9"/>
<path fill-rule="evenodd" clip-rule="evenodd" d="M288.886 167.611C288.727 163.943 288.407 161.232 288.727 158.52C289.205 154.055 288.886 149.749 288.088 145.443C287.45 141.935 287.45 138.426 287.929 134.918C288.567 129.974 291.6 126.625 296.228 124.871C297.984 124.073 299.739 124.392 301.175 125.668C302.771 127.103 304.048 128.858 304.687 130.931C305.804 134.599 305.963 138.267 305.325 141.935C304.048 148.314 297.983 160.594 288.886 167.611Z" fill="#FFF6F9"/>
<path fill-rule="evenodd" clip-rule="evenodd" d="M157.375 185.791C149.236 183.399 142.054 188.821 139.181 196.317C136.308 203.652 141.894 211.945 149.395 213.062C156.099 214.178 161.844 210.988 164.398 204.928C164.557 204.769 164.717 204.609 164.877 204.29C169.824 197.114 165.355 188.024 157.375 185.791Z" fill="#F8CFDD"/>
<path fill-rule="evenodd" clip-rule="evenodd" d="M273.565 162.348C271.011 160.753 267.979 160.115 264.946 160.593C263.191 160.274 261.435 160.434 259.839 160.753C254.732 161.71 251.221 166.334 250.742 171.438C250.263 176.063 253.136 180.049 256.647 182.761C260.158 185.472 264.467 185.95 268.777 185.312C273.724 184.674 277.555 180.049 279.151 175.584C280.906 170.321 277.874 165.059 273.565 162.348Z" fill="#F8CFDD"/>
<path fill-rule="evenodd" clip-rule="evenodd" d="M185.944 304.123C186.583 292.002 187.381 279.723 188.019 267.602C188.179 263.934 188.977 260.266 188.179 256.599C187.859 255.004 188.657 253.09 188.817 251.336C188.977 250.06 188.817 248.625 188.817 247.189C188.338 247.189 187.859 247.189 187.7 247.349C176.687 256.12 163.919 260.904 150.194 263.775C140.299 265.848 130.563 265.689 120.827 262.818C113.167 260.426 105.985 257.236 98.9621 253.409C97.0469 252.452 95.2913 251.336 93.5357 250.219C91.3013 250.379 90.5033 252.133 89.2265 253.409C85.7153 256.599 82.0445 259.788 77.4161 261.223C75.9797 261.702 74.3837 262.18 72.7877 262.499C67.5209 263.297 65.2865 261.702 64.3289 256.439C64.1693 255.801 64.0097 255.004 63.8501 254.366C62.2541 253.887 60.6581 253.728 59.2217 253.09C54.5933 251.336 53.3165 248.784 54.7529 244C54.9125 243.362 55.2317 242.724 55.7105 241.767C54.7529 240.97 53.7953 240.172 52.9973 239.375C49.1669 236.026 49.4861 232.199 53.7953 229.487C54.4337 229.168 55.0721 228.85 56.0297 228.531C55.3913 227.255 54.9125 226.298 54.4337 225.182C53.4761 223.427 53.1569 221.514 53.4761 219.6C53.7953 216.41 55.7105 214.497 59.0621 214.337C63.2117 214.018 67.2017 214.656 71.0321 216.41C72.6281 217.048 74.2241 217.846 76.1393 218.643C76.6181 217.367 77.2565 216.091 77.7353 214.816C78.5333 212.583 79.9697 210.829 81.8849 209.393C85.3961 207.001 89.2265 207.32 91.6205 210.669C93.0569 212.583 94.0145 214.975 94.8125 217.367C96.5681 222.789 96.4085 228.531 96.0893 234.272C95.9297 236.185 95.6105 237.94 95.9297 240.013C96.2489 241.608 95.7701 243.521 95.4509 245.435C96.4085 246.073 97.3661 246.87 98.3237 247.508C105.985 252.293 114.284 255.961 122.902 258.512C131.042 260.904 139.341 260.745 147.64 259.629C157.376 258.193 166.473 254.844 175.091 250.379C178.603 248.465 182.273 246.551 184.827 243.521C184.667 242.086 183.55 242.246 182.752 242.086C174.613 240.81 166.952 238.578 159.451 235.229C150.034 230.763 142.054 224.544 134.872 217.048C133.595 215.613 132.159 214.178 131.042 212.902C121.625 214.018 113.167 211.148 105.187 206.682C101.197 204.45 97.5257 201.579 94.4933 197.911C89.2265 191.691 88.9073 181.804 93.8549 175.265C96.4085 171.916 99.9197 169.843 104.229 169.684C105.825 169.684 107.261 169.524 109.177 169.524C108.857 168.089 108.538 166.813 108.219 165.697C106.942 159.955 105.506 154.374 104.229 148.633C102.154 140.18 102.952 131.728 104.548 123.435C107.102 110.358 111.571 97.9188 117.955 86.1175C120.987 80.5358 124.977 75.4325 129.605 71.1266C139.341 62.0364 150.194 55.1789 162.802 50.873C175.411 46.7266 188.338 44.175 201.745 43.5371C211.321 43.2181 220.418 45.1319 229.355 48.0025C241.325 51.8299 251.699 58.3685 260.637 67.2992C261.275 67.9371 261.754 68.894 262.552 69.2129C266.063 70.4887 267.34 73.6783 268.936 76.5489C272.767 83.5658 276.916 90.4234 279.15 98.0783C281.704 106.69 283.619 115.461 285.854 124.233C286.013 124.711 286.173 125.189 286.333 126.146C287.13 125.508 287.769 125.189 288.567 124.711C290.482 123.435 292.238 122 294.312 121.043C298.303 119.289 301.814 119.927 305.006 122.957C307.719 125.668 309.475 128.857 310.113 132.685C310.911 137.948 310.592 143.21 308.517 148.314C304.846 157.723 299.26 165.856 291.759 172.395C289.525 174.308 288.248 176.382 287.928 179.412C286.492 191.053 280.747 200.782 272.926 209.234C266.702 215.772 259.999 221.833 252.338 226.617C251.38 227.255 250.423 228.052 248.986 229.168C250.263 229.647 251.061 229.966 251.859 229.966C264.148 229.966 276.278 228.531 287.609 223.906C295.909 220.557 302.452 215.134 307.559 207.799C309.475 205.087 311.23 202.057 312.826 199.187C315.38 194.562 317.774 189.778 320.168 184.993C319.529 184.036 319.051 183.08 318.412 182.442C312.188 176.063 311.869 168.248 313.305 160.115C314.103 156.128 316.976 154.852 320.966 155.968C321.764 156.287 322.562 156.606 323.519 156.925C324.158 155.171 324.637 153.417 325.275 151.822C326.392 148.951 328.148 146.559 330.861 144.965C334.372 142.891 337.405 143.848 339.16 147.516C339.799 148.792 340.118 150.227 340.596 151.822C341.714 151.344 342.831 150.865 343.789 150.387C348.417 148.473 351.768 150.227 352.566 155.331C352.726 156.766 352.726 158.201 352.566 159.477C352.407 160.912 351.928 162.188 351.609 163.623C360.706 166.972 361.983 175.584 353.365 181.325C353.684 182.282 354.322 183.08 354.482 184.036C355.599 188.023 354.003 190.894 350.173 192.329C348.098 193.127 346.023 193.286 343.948 192.967C337.564 191.851 331.021 191.213 324.796 188.821C324.477 188.661 324.158 188.821 323.36 188.98C322.562 190.416 321.604 192.17 320.806 193.765C317.933 198.868 315.38 204.131 312.188 209.074C305.325 219.759 295.589 226.776 283.46 230.444C275.001 232.996 266.223 234.272 257.445 234.75C255.689 234.75 253.934 234.91 251.859 235.069C251.699 236.026 251.221 236.823 251.38 237.621C252.338 242.405 252.019 247.508 254.413 251.974C255.211 253.409 254.732 255.482 255.051 257.077C256.009 262.34 256.966 267.602 257.924 272.706C259.201 278.925 258.722 276.693 259.999 282.912L185.944 304.123ZM141.097 129.655C140.139 131.09 139.501 131.887 139.022 132.844C134.553 141.456 129.925 150.068 125.456 158.68C122.743 163.942 120.029 169.365 117.157 175.106C117.157 175.106 117.157 175.584 117.316 176.063C121.625 188.98 127.052 201.1 136.149 211.307C145.246 221.514 155.939 229.487 169.027 233.634C183.231 238.099 197.595 240.013 212.278 236.664C220.418 234.91 228.557 233.155 236.059 229.647C250.423 223.108 262.552 213.54 272.607 201.419C280.906 191.372 283.619 179.412 284.098 166.813C284.417 159.955 283.3 153.098 282.981 146.24C282.821 144.167 282.023 143.051 280.427 141.934C274.682 138.107 269.734 133.163 265.425 127.9C262.073 123.754 258.722 119.767 255.21 115.78C254.572 114.983 253.774 114.504 252.657 113.707C252.338 115.78 252.178 117.375 251.859 118.81C250.263 126.625 244.039 129.495 238.612 129.495C232.388 129.495 226.802 127.9 221.375 125.189C219.939 124.551 218.662 123.914 217.226 123.116C217.066 123.754 216.907 124.073 216.747 124.392C216.747 124.711 216.907 125.03 216.907 125.508C217.226 129.974 214.832 133.004 210.203 134.439C208.927 134.758 207.49 134.917 206.054 134.917C200.627 135.077 195.68 133.323 190.892 130.931C189.296 130.133 188.019 128.698 185.944 129.017C185.944 130.293 185.785 131.568 185.625 132.685C185.465 135.555 184.189 137.788 181.954 139.383C180.358 140.499 178.603 141.297 176.847 142.094C173.176 143.529 169.186 143.21 165.356 142.732C157.855 141.616 151.311 137.948 145.406 133.482C144.289 132.206 143.012 131.09 141.097 129.655ZM282.183 136.353C282.502 132.047 281.704 128.06 280.747 124.233C278.991 117.056 277.076 109.88 275.32 102.703C272.128 90.2639 266.383 79.26 257.285 70.3292C241.964 55.1789 223.291 48.0025 201.904 47.843C196.159 47.843 190.253 48.7998 184.508 49.7567C172.857 51.6704 161.366 54.86 150.992 60.7606C136.787 68.575 125.296 78.941 118.753 94.0913C117.635 96.643 116.518 99.3541 115.561 101.906C110.453 114.504 107.581 127.582 108.219 141.137C108.379 143.21 108.379 145.443 108.698 147.516C109.815 154.374 111.411 161.072 113.805 167.61C114.124 168.248 114.603 168.886 115.401 170.002C116.199 168.248 116.997 166.972 117.476 165.697C123.062 152.3 130.084 139.542 137.266 126.944C137.905 125.827 138.543 124.87 139.341 123.914C140.458 122.638 141.895 122.638 143.012 123.754C143.331 124.073 143.331 124.392 143.65 124.551C148.598 130.612 154.982 134.758 162.323 136.991C166.792 138.426 171.421 138.745 175.889 137.469C180.837 136.034 182.752 132.685 180.997 127.741C180.358 125.668 178.922 123.595 177.964 121.681C177.485 120.724 176.847 119.927 176.528 118.97C176.368 118.491 176.687 117.534 177.166 117.056C177.645 116.578 178.443 116.418 179.081 116.578C179.879 116.897 180.677 117.375 181.156 118.013C185.625 122.478 190.892 125.668 196.637 128.06C199.67 129.495 203.021 130.133 206.373 130.133C207.969 130.133 209.405 129.655 210.842 129.017C212.119 128.538 212.597 127.263 212.438 125.987C212.278 124.711 211.799 123.595 211.321 122.478C210.682 121.043 210.044 119.608 209.405 118.172C208.927 116.897 209.086 115.461 210.363 114.823C211.161 114.345 212.597 114.345 213.395 114.664C214.991 115.302 216.428 116.418 217.864 117.375C222.493 120.724 227.6 123.276 233.186 124.233C235.42 124.711 237.814 124.87 240.049 124.711C243.56 124.551 246.273 122.797 247.231 119.289C248.348 114.983 248.827 110.677 246.113 106.531C244.996 104.936 245.475 103.979 247.231 103.341C248.667 102.703 249.944 102.863 251.061 104.138C254.093 107.487 257.285 110.836 260.318 114.345C263.989 118.491 267.18 122.957 270.851 126.944C273.884 130.133 277.235 133.004 280.427 136.034C280.906 136.193 281.545 136.193 282.183 136.353ZM248.667 251.336C247.231 245.276 246.752 238.897 244.677 232.836C244.517 232.358 243.879 232.199 243.56 231.88C227.919 238.897 211.64 243.202 194.243 243.362C194.084 246.392 193.924 249.263 193.765 251.974C193.765 254.844 192.967 257.874 194.084 260.745C209.405 261.861 224.248 259.31 238.772 255.482C241.964 254.525 245.475 253.887 248.667 251.336ZM192.169 283.072C193.605 283.391 194.722 283.71 195.68 283.869C200.308 284.507 204.777 283.869 209.246 282.912C219.62 280.839 229.994 278.766 240.208 276.374C244.677 275.417 248.507 272.865 252.338 270.154C251.699 266.327 251.061 262.659 250.263 258.991C250.103 258.193 249.465 257.555 249.305 257.236C242.762 258.831 236.697 260.266 230.473 261.861C224.567 263.456 218.503 264.572 212.278 264.891C205.894 265.21 199.67 265.37 193.286 265.529C192.967 266.646 192.488 267.443 192.328 268.24C192.169 273.025 192.009 277.809 192.169 283.072ZM69.4361 257.555C71.6705 258.034 73.2665 257.555 75.0221 257.077C80.2889 255.482 84.1193 251.814 87.9497 247.987C88.7477 247.189 89.2265 245.914 89.5457 244.638C90.3437 240.651 90.9821 236.664 91.4609 232.677C91.9397 227.893 91.6205 223.108 90.1841 218.483C89.7053 216.889 88.9073 215.134 87.9497 213.699C86.9921 212.104 85.2365 212.104 83.9597 213.38C82.0445 215.134 81.0869 217.367 81.2465 220.078C81.2465 221.035 81.7253 222.151 81.8849 223.108C82.3637 225.341 80.9273 226.776 79.0121 225.979C77.2565 225.341 75.5009 224.225 74.0645 223.108C70.0745 220.078 65.6057 218.802 60.8177 218.483C58.5833 218.324 57.6257 219.919 58.5833 221.992C59.3813 224.225 61.1369 225.819 63.0521 227.095C64.0097 227.893 65.1269 228.531 65.9249 229.328C66.8825 230.285 66.2441 232.517 64.9673 232.836C64.0097 232.996 62.8925 232.996 61.7753 233.155C60.1793 233.155 58.5833 233.155 56.9873 233.315C56.6681 233.315 56.0297 233.953 56.0297 234.272C56.0297 234.75 56.1893 235.388 56.6681 235.548C58.2641 236.345 59.8601 237.142 61.4561 237.78C62.4137 238.099 63.5309 237.94 64.4885 238.418C65.1269 238.737 66.0845 239.534 66.0845 240.172C66.2441 240.81 65.6057 241.927 64.9673 242.405C63.8501 243.202 62.2541 243.362 61.1369 244C60.3389 244.478 59.3813 245.435 59.2217 246.392C58.9025 247.668 60.1793 247.987 61.1369 248.465C63.0521 249.263 64.9673 249.103 66.5633 247.827C67.2017 247.189 67.8401 246.551 68.6381 246.232C69.2765 246.073 70.2341 246.073 70.5533 246.392C71.0321 246.87 71.5109 247.827 71.5109 248.625C71.5109 249.422 70.8725 250.219 70.3937 251.017C69.1169 252.931 68.7977 255.004 69.4361 257.555ZM317.774 160.274C316.337 164.74 316.976 169.205 318.093 173.511C318.572 175.584 319.689 177.498 321.604 178.614C322.721 179.252 323.679 180.05 323.998 181.166C324.956 183.558 327.031 184.674 329.265 185.153C334.372 186.269 339.639 187.067 344.906 187.864C345.704 188.023 346.661 187.864 347.459 187.704C348.577 187.545 349.694 187.226 349.853 185.95C349.853 185.153 349.375 184.196 348.896 183.717C348.098 182.92 346.98 182.282 345.863 181.644C344.746 181.006 343.789 180.209 344.108 178.774C344.427 177.657 345.385 177.179 346.502 177.019C347.619 176.86 348.736 176.86 349.694 176.541C350.971 176.063 352.247 175.425 353.365 174.627C354.482 173.67 354.801 172.235 354.163 170.8C353.524 169.365 352.407 168.408 350.811 168.727C348.896 169.046 347.14 169.683 345.225 170.162C344.267 170.481 343.31 171.119 342.193 171.119C341.554 171.119 340.597 170.481 340.118 169.843C339.799 169.365 339.958 168.408 340.277 167.929C341.235 166.653 342.512 165.697 343.629 164.58C345.225 163.145 346.821 161.71 347.459 159.636C348.098 157.563 348.577 155.49 346.502 153.736C342.831 155.331 340.756 158.361 339.639 162.029C339.16 163.304 338.841 164.74 338.203 166.016C337.883 166.494 336.607 166.813 335.809 166.653C335.33 166.653 334.532 165.697 334.532 165.218C334.532 163.623 334.851 162.029 334.851 160.593C335.011 157.404 335.17 154.214 335.17 151.184C335.17 150.227 334.372 149.43 334.053 148.633C331.978 148.633 331.18 149.908 330.542 151.025C328.786 153.736 327.988 156.766 327.988 160.115C327.988 162.029 327.988 163.942 327.669 165.856C327.509 166.494 326.711 167.451 325.913 167.61C325.275 167.77 323.998 167.451 323.679 166.813C322.721 165.537 322.242 163.942 321.444 162.667C320.806 161.391 320.008 160.115 317.774 160.274ZM111.411 175.584C109.655 174.308 107.74 173.989 105.665 173.989C101.516 173.83 98.3237 175.584 96.5681 179.093C93.8549 184.355 93.5357 189.937 98.0045 194.721C98.6429 195.359 99.2813 195.997 99.9197 196.635C106.942 203.333 115.401 206.842 124.977 207.958C125.456 207.958 125.775 207.639 126.573 207.32C120.827 196.954 115.72 186.269 111.411 175.584ZM288.886 167.61C297.824 160.593 304.048 148.314 305.165 141.775C305.804 138.107 305.804 134.439 304.527 130.771C303.889 128.698 302.612 126.944 301.016 125.508C299.579 124.233 297.983 123.914 296.068 124.711C291.44 126.465 288.407 129.814 287.769 134.758C287.29 138.267 287.29 141.775 287.928 145.283C288.727 149.589 289.046 154.055 288.567 158.361C288.567 161.231 288.886 164.102 288.886 167.61Z" fill="#8B254A"/>
<path fill-rule="evenodd" clip-rule="evenodd" d="M228.398 187.704C228.078 189.778 227.759 191.851 227.44 193.924C226.642 198.23 223.929 201.1 220.098 203.014C214.512 205.725 204.457 205.087 200.627 196.635C199.51 194.083 198.552 191.372 197.754 188.661C197.435 187.545 197.754 186.11 198.073 184.993C198.393 184.355 199.35 183.717 200.148 183.717C200.787 183.717 201.744 184.515 201.904 185.312C202.383 186.907 202.542 188.821 202.861 190.415C203.181 191.532 203.659 192.648 204.298 193.764C206.851 199.187 211.32 200.303 217.226 198.868C219.779 198.23 221.854 196.635 222.492 194.083C223.45 190.734 224.407 187.226 222.971 183.717C222.811 183.239 222.492 182.761 222.333 182.282C222.014 181.006 222.652 179.73 223.769 179.252C224.886 178.774 225.844 179.412 226.482 180.368C227.759 182.761 228.398 185.153 228.398 187.704Z" fill="#8B254A"/>
<path fill-rule="evenodd" clip-rule="evenodd" d="M197.116 187.38C197.435 185.306 197.755 183.233 198.074 181.16C198.872 176.854 201.585 173.984 205.415 172.07C211.001 169.359 221.056 169.997 224.887 178.449C226.004 181.001 226.961 183.712 227.759 186.423C228.079 187.539 227.759 188.974 227.44 190.091C227.121 190.729 226.163 191.367 225.365 191.367C224.727 191.367 223.769 190.569 223.61 189.772C223.131 188.177 222.971 186.263 222.652 184.669C222.333 183.552 221.854 182.436 221.216 181.32C218.662 175.897 214.193 174.781 208.288 176.216C205.735 176.854 203.66 178.449 203.021 181.001C202.064 184.35 201.106 187.858 202.543 191.367C202.702 191.845 203.021 192.323 203.181 192.802C203.5 194.078 202.862 195.354 201.745 195.832C200.627 196.31 199.67 195.672 199.031 194.716C197.755 192.323 197.116 189.931 197.116 187.38Z" fill="#8B254A"/>
<path fill-rule="evenodd" clip-rule="evenodd" d="M172.856 173.671C172.856 177.977 172.058 180.847 168.707 182.442C165.834 183.718 162.961 183.877 160.088 182.123C157.216 180.369 156.577 177.339 156.896 174.309C157.375 170.641 158.971 167.611 162.482 166.016C166.153 164.421 170.143 165.697 171.739 169.365C172.378 171.119 172.697 172.873 172.856 173.671Z" fill="#8B254A"/>
<path fill-rule="evenodd" clip-rule="evenodd" d="M243.719 166.654C240.686 166.654 238.612 164.9 237.335 162.507C235.898 159.637 235.579 156.607 237.654 153.896C239.569 151.344 241.963 148.952 245.634 149.749C248.986 150.387 250.103 153.258 251.22 156.288C252.816 160.434 248.188 167.292 243.719 166.654Z" fill="#8B254A"/>
<path fill-rule="evenodd" clip-rule="evenodd" d="M191.371 302.369C191.69 297.584 191.211 295.511 191.69 290.727C191.69 290.089 192.169 289.451 192.328 288.653C193.126 288.494 193.765 288.335 194.403 288.494C202.064 289.132 209.565 287.697 216.907 286.102C224.887 284.348 232.867 282.912 240.687 281.158C242.762 280.68 244.677 279.882 246.592 279.085C248.667 278.128 250.582 277.012 253.295 275.736C253.455 276.852 253.934 280.839 254.413 282.912C238.293 295.352 212.278 304.92 191.371 302.369Z" fill="#3CDC8C"/>
</g>
<defs>
<filter id="filter0_d" x="0" y="0" width="407" height="496" filterUnits="userSpaceOnUse" color-interpolation-filters="sRGB">
<feFlood flood-opacity="0" result="BackgroundImageFix"/>
<feColorMatrix in="SourceAlpha" type="matrix" values="0 0 0 0 0 0 0 0 0 0 0 0 0 0 0 0 0 0 127 0"/>
<feOffset dy="4"/>
<feGaussianBlur stdDeviation="2"/>
<feColorMatrix type="matrix" values="0 0 0 0 0 0 0 0 0 0 0 0 0 0 0 0 0 0 0.25 0"/>
<feBlend mode="normal" in2="BackgroundImageFix" result="effect1_dropShadow"/>
<feBlend mode="normal" in="SourceGraphic" in2="effect1_dropShadow" result="shape"/>
</filter>
<clipPath id="clip0">
<rect width="399" height="488" fill="white" transform="translate(4)"/>
</clipPath>
</defs>
</svg>
